<svg width="100" height="100" viewBox="0 0 100.75 100" xmlns="http://www.w3.org/2000/svg">
	<path class="cls-2" d="M150.263 15.746c-28.297 0-51.233 22.945-51.233 51.227a50.983 50.983 0 0 0 12.31 33.258L78.702 156.76a59.62 59.62 0 0 1 29.572 17.082l32.638-56.533a51.253 51.253 0 0 0 9.344.888c28.292 0 51.227-22.935 51.227-51.226 0-28.292-22.935-51.224-51.221-51.224z" style="fill:#000;fill-opacity:1;stroke-width:.177642" transform="translate(.506 3.234) scale(.33188)" />
	<path class="cls-2" d="M235.636 163.625a51.412 51.412 0 0 0-9.344.888l-32.64-56.527a59.6 59.6 0 0 1-29.57 17.08l32.636 56.53a50.983 50.983 0 0 0-12.309 33.256c0 28.293 22.935 51.227 51.227 51.227 28.291 0 51.234-22.934 51.234-51.227 0-28.293-22.943-51.227-51.234-51.227z" style="fill:#000;fill-opacity:1;stroke-width:.177642" transform="translate(.506 3.234) scale(.33188)" />
	<path class="cls-2" d="M175.872 214.852a59.754 59.754 0 0 1 2.506-17.075h-65.243c-7.038-19.884-25.953-34.152-48.247-34.152-28.3 0-51.233 22.935-51.233 51.227 0 28.291 22.932 51.221 51.225 51.221 22.295 0 41.214-14.268 48.248-34.15h65.25a59.757 59.757 0 0 1-2.506-17.071z" style="fill:#000;fill-opacity:1;stroke-width:.177642" transform="translate(.506 3.234) scale(.33188)" />
</svg>
